0
SECTION
2
HEADER
9
$INSUNITS
70
4
9
$ACADVER
1
AC1014
9
$HANDSEED
5
FFFF
0
ENDSEC
0
SECTION
2
TABLES
0
TABLE
2
VPORT
5
8
100
AcDbSymbolTable
0
ENDTAB
0
TABLE
2
LTYPE
5
5
100
AcDbSymbolTable
0
LTYPE
5
14
100
AcDbSymbolTableRecord
100
AcDbLinetypeTableRecord
2
BYBLOCK
70
0
0
LTYPE
5
15
100
AcDbSymbolTableRecord
100
AcDbLinetypeTableRecord
2
BYLAYER
70
0
0
ENDTAB
0
TABLE
2
LAYER
5
2
100
AcDbSymbolTable
70
2
0
LAYER
5
50
100
AcDbSymbolTableRecord
100
AcDbLayerTableRecord
2
0
70
0
6
CONTINUOUS
0
ENDTAB
0
TABLE
2
STYLE
5
3
100
AcDbSymbolTable
70
1
0
STYLE
5
11
100
AcDbSymbolTableRecord
100
AcDbTextStyleTableRecord
2
STANDARD
70
0
0
ENDTAB
0
TABLE
2
VIEW
5
6
100
AcDbSymbolTable
70
0
0
ENDTAB
0
TABLE
2
UCS
5
7
100
AcDbSymbolTable
70
0
0
ENDTAB
0
TABLE
2
APPID
5
9
100
AcDbSymbolTable
70
2
0
APPID
5
12
100
AcDbSymbolTableRecord
100
AcDbRegAppTableRecord
2
ACAD
70
0
0
ENDTAB
0
TABLE
2
DIMSTYLE
5
A
100
AcDbSymbolTable
70
1
0
ENDTAB
0
TABLE
2
BLOCK_RECORD
5
1
100
AcDbSymbolTable
70
1
0
BLOCK_RECORD
5
1F
100
AcDbSymbolTableRecord
100
AcDbBlockTableRecord
2
*MODEL_SPACE
0
BLOCK_RECORD
5
1B
100
AcDbSymbolTableRecord
100
AcDbBlockTableRecord
2
*PAPER_SPACE
0
ENDTAB
0
ENDSEC
0
SECTION
2
BLOCKS
0
BLOCK
5
20
100
AcDbEntity
100
AcDbBlockBegin
2
*MODEL_SPACE
0
ENDBLK
5
21
100
AcDbEntity
100
AcDbBlockEnd
0
BLOCK
5
1C
100
AcDbEntity
100
AcDbBlockBegin
2
*PAPER_SPACE
0
ENDBLK
5
1D
100
AcDbEntity
100
AcDbBlockEnd
0
ENDSEC
0
SECTION
2
ENTITIES
0
LINE
5
100
100
AcDbEntity
8
0
100
AcDbLine
10
5.1374764298305875
20
82.809985355638986
30
0
11
11.487491074235347
21
82.809985355638986
31
0
0
LWPOLYLINE
5
101
100
AcDbEntity
8
0
100
AcDbPolyline
90
63
70
1
43
0.0
10
4.5840600000000009
20
89.135799999999989
10
5.1374999999999993
20
89.159999999999997
10
68.637499999999989
20
89.159999999999997
42
0.38887899999999931
10
69.90270000000001
20
90.319299999999998
10
69.907500000000013
20
90.429999999999993
10
69.907500000000041
20
90.954000000000008
42
-0.38887900000000097
10
71.066800000000001
20
92.219200000000001
10
71.177500000000009
20
92.224000000000004
10
81.591499999999996
20
92.22399999999999
42
-0.38887900000000336
10
82.856699999999989
20
91.064699999999988
10
82.861500000000007
20
90.954000000000008
10
82.861500000000007
20
90.429999999999993
42
0.38887899999999559
10
84.020799999999994
20
89.1648
10
84.131500000000003
20
89.159999999999997
10
89.465500000000006
20
89.160000000000039
42
-0.38887900000000086
10
95.791300000000007
20
83.363399999999999
10
95.815500000000014
20
82.809999999999988
10
95.815500000000014
20
70.872000000000014
42
-0.38887900000000292
10
95.119900000000001
20
70.11290000000001
10
95.053500000000014
20
70.110000000000014
10
94.799500000000009
20
70.110000000000014
10
94.600300000000004
20
70.101300000000009
10
94.402500000000003
20
70.075300000000013
42
0.96856199999999759
10
95.053500000000014
20
65.538000000000011
10
95.119900000000001
20
65.535100000000014
42
-0.36397000000000107
10
95.812600000000003
20
64.842400000000012
10
95.815500000000014
20
64.77600000000001
10
95.815500000000014
20
21.595999999999997
42
-0.38887900000000125
10
95.119900000000001
20
20.8369
10
95.053500000000014
20
20.833999999999996
10
94.799500000000009
20
20.833999999999996
10
94.600300000000004
20
20.825300000000002
10
94.402500000000003
20
20.799300000000002
42
0.96856199999999759
10
95.053500000000014
20
16.262
10
95.119900000000001
20
16.259100000000007
42
-0.36396999999999841
10
95.812600000000003
20
15.5664
10
95.815500000000014
20
15.499999999999998
10
95.815500000000043
20
3.5619999999999923
42
-0.3888790000000002
10
90.018900000000002
20
-2.7638370000000014
10
89.465500000000006
20
-2.7880000000000011
10
5.2644999999999929
20
-2.78800000000001
42
-0.41421400000000014
10
-1.2124999999999999
20
3.5619999999999985
10
-1.2125000000000019
20
15.499999999999998
42
-0.38887900000000014
10
-0.51691199999999993
20
16.2591
10
-0.4504999999999999
20
16.262
10
-0.19649999999999987
20
16.262
10
0.0027400000000002422
20
16.270700000000001
10
0.20045999999999953
20
16.296700000000001
42
0.96856200000000103
10
-0.45049999999999268
20
20.834000000000003
10
-0.51691600000000137
20
20.836899999999993
42
-0.36396899999999982
10
-1.2096
20
21.529600000000002
10
-1.2124999999999999
20
21.596000000000004
10
-1.2124999999999984
20
64.77600000000001
42
-0.3888790000000012
10
-0.51691199999999993
20
65.535100000000014
10
-0.4504999999999999
20
65.538000000000011
10
-0.19649999999999987
20
65.538000000000011
10
0.0027400000000002422
20
65.546700000000001
10
0.20045999999999953
20
65.572700000000012
42
0.96856199999999926
10
-0.45049999999999268
20
70.110000000000014
10
-0.51691600000000104
20
70.112899999999996
42
-0.3639690000000016
10
-1.2096
20
70.805600000000013
10
-1.2124999999999999
20
70.872000000000014
10
-1.2125000000000064
20
82.810000000000031
42
-0.38887899999999886
0
LINE
5
102
100
AcDbEntity
8
0
100
AcDbLine
10
42.300514002141242
20
89.159999999999997
30
0
11
42.300514002141242
21
90.159999999999997
31
0
0
LINE
5
103
100
AcDbEntity
8
0
100
AcDbLine
10
-1.2125000000000044
20
77.652564325667498
30
0
11
-2.2125000000000044
21
77.652564325667498
31
0
0
CIRCLE
5
104
100
AcDbEntity
8
0
100
AcDbCircle
10
-2.9235512308539691
20
90.871013016323559
30
0
40
1.0499999999999998
210
0
220
0
230
1
0
LINE
5
105
100
AcDbEntity
8
0
100
AcDbLine
10
0.64733801413809744
20
87.300123771331485
30
0
11
-2.9235512308539691
21
90.871013016323559
31
0
0
LINE
5
106
100
AcDbEntity
8
0
100
AcDbLine
10
-2.9235512308539691
20
90.871013016323559
30
0
11
-5.7873336946594822
21
93.73479548012908
31
0
0
CIRCLE
5
107
100
AcDbEntity
8
0
100
AcDbCircle
10
-2.9235512308539691
20
90.871013016323559
30
0
40
2.0499999999999998
210
0
220
0
230
1
0
LWPOLYLINE
5
108
100
AcDbEntity
8
0
100
AcDbPolyline
90
8
70
1
43
0.0
10
-11.312499999999996
20
82.810000000000002
10
-11.312500000000007
20
3.5620000000000021
42
0.4142135623730952
10
5.1374999999999815
20
-12.888000000000002
10
89.46550000000002
20
-12.888000000000005
42
0.41421356237309592
10
105.91550000000001
20
3.5620000000000029
10
105.91549999999999
20
82.810000000000002
42
0.41421356237309537
10
89.46550000000002
20
99.260000000000005
10
5.1375000000000037
20
99.260000000000005
42
0.41421356237309515
0
LINE
5
109
100
AcDbEntity
8
0
100
AcDbLine
10
5.2009952560725843
20
3.6254951611940278
30
0
11
0.66574702498530536
21
-0.90975306989325155
31
0
0
CIRCLE
5
110
100
AcDbEntity
8
0
100
AcDbCircle
10
-2.9051422200067609
20
-4.4806423148853183
30
0
40
1.0499999999999998
210
0
220
0
230
1
0
LINE
5
111
100
AcDbEntity
8
0
100
AcDbLine
10
0.66574702498530536
20
-0.90975306989325155
30
0
11
-2.9051422200067609
21
-4.4806423148853183
31
0
0
CIRCLE
5
112
100
AcDbEntity
8
0
100
AcDbCircle
10
-2.9051422200067609
20
-4.4806423148853183
30
0
40
2.0500000000000003
210
0
220
0
230
1
0
LINE
5
113
100
AcDbEntity
8
0
100
AcDbLine
10
-2.9051422200067609
20
-4.4806423148853183
30
0
11
-5.768924683812279
21
-7.3444247786908354
31
0
0
LINE
5
114
100
AcDbEntity
8
0
100
AcDbLine
10
-1.2125000000000006
20
7.1331846196345818
30
0
11
-2.2125000000000004
21
7.1331846196345818
31
0
0
LINE
5
115
100
AcDbEntity
8
0
100
AcDbLine
10
43.111717413767764
20
-2.7880000000000047
30
0
11
43.111717413767764
21
-12.888000000000005
31
0
0
LINE
5
116
100
AcDbEntity
8
0
100
AcDbLine
10
5.1374764298305875
20
82.809985355638986
30
0
11
0.64733801413809744
21
87.300123771331485
31
0
0
LINE
5
117
100
AcDbEntity
8
0
100
AcDbLine
10
38.862985166242474
20
89.159999999999997
30
0
11
38.862985166242474
21
99.260000000000005
31
0
0
LINE
5
118
100
AcDbEntity
8
0
100
AcDbLine
10
-1.2127422043055804
20
63.188098567387058
30
0
11
-1.2124999999992276
21
63.188098567386824
31
0
0
LINE
5
119
100
AcDbEntity
8
0
100
AcDbLine
10
5.2009952560725843
20
3.6254951611940278
30
0
11
11.614804813204804
21
3.6254951611940278
31
0
0
LINE
5
120
100
AcDbEntity
8
0
100
AcDbLine
10
-1.2125000000000006
20
42.405457272642408
30
0
11
-2.2125000000000004
21
42.405457272642408
31
0
0
LINE
5
121
100
AcDbEntity
8
0
100
AcDbLine
10
-1.2125000000000006
20
40.565152477692138
30
0
11
-11.3125
21
40.565152477692138
31
0
0
LINE
5
122
100
AcDbEntity
8
0
100
AcDbLine
10
89.465463529489398
20
82.810003570169428
30
0
11
95.815459959424714
21
82.810003570169428
31
0
0
LINE
5
123
100
AcDbEntity
8
0
100
AcDbLine
10
89.465463529489398
20
82.810003570169428
30
0
11
93.955589065607029
21
87.300129106287073
31
0
0
LINE
5
124
100
AcDbEntity
8
0
100
AcDbLine
10
97.526478310599103
20
90.871018351279133
30
0
11
100.39026077440462
21
93.734800815084668
31
0
0
LINE
5
125
100
AcDbEntity
8
0
100
AcDbLine
10
93.955589065607029
20
87.300129106287073
30
0
11
97.526478310599103
21
90.871018351279133
31
0
0
CIRCLE
5
126
100
AcDbEntity
8
0
100
AcDbCircle
10
97.526478310599103
20
90.871018351279133
30
0
40
2.0499999999999927
210
0
220
0
230
1
0
LINE
5
127
100
AcDbEntity
8
0
100
AcDbLine
10
95.815500000000014
20
44.554093430310708
30
0
11
105.91550000000001
21
44.554093430310708
31
0
0
LINE
5
128
100
AcDbEntity
8
0
100
AcDbLine
10
97.526512437946707
20
-4.4990110864550275
30
0
11
100.39029490175223
21
-7.3627935502605446
31
0
0
CIRCLE
5
129
100
AcDbEntity
8
0
100
AcDbCircle
10
97.526512437946707
20
-4.4990110864550275
30
0
40
1.0500000000000005
210
0
220
0
230
1
0
LINE
5
130
100
AcDbEntity
8
0
100
AcDbLine
10
89.465483380981041
20
3.5620179705106212
30
0
11
93.955623192954633
21
-0.92812184146296106
31
0
0
LINE
5
131
100
AcDbEntity
8
0
100
AcDbLine
10
55.353011505900909
20
-2.7880000000000047
30
0
11
55.353011505900909
21
-3.7880000000000047
31
0
0
LINE
5
132
100
AcDbEntity
8
0
100
AcDbLine
10
93.955623192954633
20
-0.92812184146296106
30
0
11
97.526512437946707
21
-4.4990110864550275
31
0
0
CIRCLE
5
133
100
AcDbEntity
8
0
100
AcDbCircle
10
97.526512437946707
20
-4.4990110864550275
30
0
40
2.0499999999999998
210
0
220
0
230
1
0
CIRCLE
5
134
100
AcDbEntity
8
0
100
AcDbCircle
10
97.526478310599103
20
90.871018351279133
30
0
40
1.0499999999999987
210
0
220
0
230
1
0
LINE
5
135
100
AcDbEntity
8
0
100
AcDbLine
10
95.815500000000043
20
6.1682721780262479
30
0
11
96.815500000000029
21
6.1682721780262497
31
0
0
LINE
5
136
100
AcDbEntity
8
0
100
AcDbLine
10
93.955589065607029
20
87.300129106287073
30
0
11
99.00558906560704
21
87.300129106287073
31
0
0
LINE
5
137
100
AcDbEntity
8
0
100
AcDbLine
10
89.465483380981041
20
3.5620179705106212
30
0
11
95.81550000002548
21
3.5620179705106212
31
0
0
LINE
5
138
100
AcDbEntity
8
0
100
AcDbLine
10
95.815500000000014
20
76.080455706951952
30
0
11
96.815500000000014
21
76.080455706951952
31
0
0
ARC
5
139
100
AcDbEntity
8
0
100
AcDbCircle
10
89.465499999999963
20
3.5620000000000287
30
0
40
7.3500000000000343
210
-0
220
0
230
1
100
AcDbArc
50
270
51
360
0
LINE
5
140
100
AcDbEntity
8
0
100
AcDbLine
10
55.353011505900909
20
-3.7880000000000047
30
0
11
89.465499999999963
21
-3.7880000000000056
31
0
0
LINE
5
141
100
AcDbEntity
8
0
100
AcDbLine
10
55.353011505900909
20
-3.7880000000000047
30
0
11
5.2015000000000118
21
-3.7880000000000056
31
0
0
ARC
5
142
100
AcDbEntity
8
0
100
AcDbCircle
10
5.2015000000000118
20
3.6260000000000092
30
0
40
7.414000000000013
210
0
220
0
230
1
100
AcDbArc
50
180
51
270
0
LINE
5
143
100
AcDbEntity
8
0
100
AcDbLine
10
-2.212499999999999
20
15.561902993190715
30
0
11
-2.2125000000000008
21
3.6260000000000097
31
0
0
LINE
5
144
100
AcDbEntity
8
0
100
AcDbLine
10
-2.2125000000011914
20
24.197951495306434
30
0
11
-2.2125000000011252
21
21.547999997403839
31
0
0
LINE
5
145
100
AcDbEntity
8
0
100
AcDbLine
10
-2.2124999999993396
20
62.18809856738649
30
0
11
-2.2125000000011914
21
24.197951495306434
31
0
0
LINE
5
146
100
AcDbEntity
8
0
100
AcDbLine
10
-2.2124999999993396
20
62.18809856738649
30
0
11
-2.2124999999993413
21
62.188098567387257
31
0
0
LINE
5
147
100
AcDbEntity
8
0
100
AcDbLine
10
-1.2125000000000006
20
58.594594916108669
30
0
11
-2.2124999999995145
21
58.594594916108711
31
0
0
LINE
5
148
100
AcDbEntity
8
0
100
AcDbLine
10
96.815500000000029
20
3.5620000000000145
30
0
11
96.815500000000014
21
82.810040491250234
31
0
0
ARC
5
149
100
AcDbEntity
8
0
100
AcDbCircle
10
89.465499999965317
20
82.810040491250234
30
0
40
7.3500000000347043
210
0
220
0
230
1
100
AcDbArc
50
0
51
90.000049188563239
0
LINE
5
150
100
AcDbEntity
8
0
100
AcDbLine
10
-1.2125000000000006
20
13.241242650107949
30
0
11
-2.2125000000000012
21
13.241242650107949
31
0
0
LINE
5
151
100
AcDbEntity
8
0
100
AcDbLine
10
-0.19749931576073743
20
20.847999997403864
30
0
11
-0.19749931576073743
21
20.547999997403863
31
0
0
LINE
5
152
100
AcDbEntity
8
0
100
AcDbLine
10
2.0955491863458366
20
18.554951495297288
30
0
11
1.7955491863458364
21
18.554951495297288
31
0
0
LINE
5
153
100
AcDbEntity
8
0
100
AcDbLine
10
-0.19749931576073743
20
20.547999997403863
30
0
11
-0.19749931576073743
21
16.561902993190717
31
0
0
LINE
5
154
100
AcDbEntity
8
0
100
AcDbLine
10
-0.19749931576073743
20
20.547999997403863
30
0
11
-1.2125000000011237
21
20.547999997403863
31
0
0
LINE
5
155
100
AcDbEntity
8
0
100
AcDbLine
10
-0.19749931576073743
20
16.561902993190717
30
0
11
-1.2124999999999999
21
16.561902993190717
31
0
0
ARC
5
156
100
AcDbEntity
8
0
100
AcDbCircle
10
-0.19749931576073743
20
18.554951495297288
30
0
40
1.9930485021065736
210
0
220
0
230
1
100
AcDbArc
50
-90
51
90
0
ARC
5
157
100
AcDbEntity
8
0
100
AcDbCircle
10
-1.2125000000011201
20
21.547999997403871
30
0
40
1.0000000000000051
210
0
220
0
230
1
100
AcDbArc
50
180
51
269.99999999999983
0
ARC
5
158
100
AcDbEntity
8
0
100
AcDbCircle
10
-1.2125000000000001
20
15.561902993190717
30
0
40
0.99999999999999867
210
0
220
-0
230
1
100
AcDbArc
50
89.999999999999986
51
180
0
LINE
5
159
100
AcDbEntity
8
0
100
AcDbLine
10
5.1374936900063064
20
90.159968095458481
30
0
11
89.465493689972803
21
90.160040491247472
31
0
0
LINE
5
160
100
AcDbEntity
8
0
100
AcDbLine
10
2.0955491863458402
20
67.830951495297299
30
0
11
1.7955491863458399
21
67.830951495297299
31
0
0
LINE
5
161
100
AcDbEntity
8
0
100
AcDbLine
10
-0.19749931576073743
20
69.823999997403888
30
0
11
-0.19749931576073743
21
65.837902993190724
31
0
0
LINE
5
162
100
AcDbEntity
8
0
100
AcDbLine
10
-0.19749931576073743
20
69.823999997403888
30
0
11
-1.2125000000001021
21
69.823999997403888
31
0
0
LINE
5
163
100
AcDbEntity
8
0
100
AcDbLine
10
-0.19749931576073743
20
65.837902993190724
30
0
11
-1.2124999999995749
21
65.837902993190724
31
0
0
ARC
5
164
100
AcDbEntity
8
0
100
AcDbCircle
10
-0.19749931576073743
20
67.830951495297299
30
0
40
1.9930485021065802
210
0
220
0
230
1
100
AcDbArc
50
-90
51
90
0
LINE
5
165
100
AcDbEntity
8
0
100
AcDbLine
10
-2.2124999999993413
20
62.188098567387257
30
0
11
-2.2124999999995767
21
64.837902993190639
31
0
0
LINE
5
166
100
AcDbEntity
8
0
100
AcDbLine
10
-2.2125000000001034
20
70.823999997403789
30
0
11
-2.2125000000011577
21
82.809968095460547
31
0
0
ARC
5
167
100
AcDbEntity
8
0
100
AcDbCircle
10
-1.2125000000001156
20
70.823999997403874
30
0
40
0.99999999999998768
210
0
220
0
230
1
100
AcDbArc
50
180
51
270.00000000000074
0
ARC
5
168
100
AcDbEntity
8
0
100
AcDbCircle
10
-1.2124999999995891
20
64.837902993190738
30
0
40
0.99999999999998757
210
0
220
-0
230
1
100
AcDbArc
50
89.99999999999919
51
180
0
ARC
5
169
100
AcDbEntity
8
0
100
AcDbCircle
10
5.1374999999988278
20
82.809968095461215
30
0
40
7.3499999999999845
210
0
220
0
230
1
100
AcDbArc
50
90.000049188563295
51
180
0
ENDSEC
0
SECTION
2
OBJECTS
0
DICTIONARY
5
C
100
AcDbDictionary
3
ACAD_GROUP
350
D
3
ACAD_MLINESTYLE
350
17
0
DICTIONARY
5
D
100
AcDbDictionary
0
DICTIONARY
5
1A
330
C
100
AcDbDictionary
0
DICTIONARY
5
17
100
AcDbDictionary
0
ENDSEC
0
EOF
