0
SECTION
2
HEADER
9
$INSUNITS
70
4
9
$ACADVER
1
AC1014
9
$HANDSEED
5
FFFF
0
ENDSEC
0
SECTION
2
TABLES
0
TABLE
2
VPORT
5
8
100
AcDbSymbolTable
0
ENDTAB
0
TABLE
2
LTYPE
5
5
100
AcDbSymbolTable
0
LTYPE
5
14
100
AcDbSymbolTableRecord
100
AcDbLinetypeTableRecord
2
BYBLOCK
70
0
0
LTYPE
5
15
100
AcDbSymbolTableRecord
100
AcDbLinetypeTableRecord
2
BYLAYER
70
0
0
ENDTAB
0
TABLE
2
LAYER
5
2
100
AcDbSymbolTable
70
2
0
LAYER
5
50
100
AcDbSymbolTableRecord
100
AcDbLayerTableRecord
2
0
70
0
6
CONTINUOUS
0
ENDTAB
0
TABLE
2
STYLE
5
3
100
AcDbSymbolTable
70
1
0
STYLE
5
11
100
AcDbSymbolTableRecord
100
AcDbTextStyleTableRecord
2
STANDARD
70
0
0
ENDTAB
0
TABLE
2
VIEW
5
6
100
AcDbSymbolTable
70
0
0
ENDTAB
0
TABLE
2
UCS
5
7
100
AcDbSymbolTable
70
0
0
ENDTAB
0
TABLE
2
APPID
5
9
100
AcDbSymbolTable
70
2
0
APPID
5
12
100
AcDbSymbolTableRecord
100
AcDbRegAppTableRecord
2
ACAD
70
0
0
ENDTAB
0
TABLE
2
DIMSTYLE
5
A
100
AcDbSymbolTable
70
1
0
ENDTAB
0
TABLE
2
BLOCK_RECORD
5
1
100
AcDbSymbolTable
70
1
0
BLOCK_RECORD
5
1F
100
AcDbSymbolTableRecord
100
AcDbBlockTableRecord
2
*MODEL_SPACE
0
BLOCK_RECORD
5
1B
100
AcDbSymbolTableRecord
100
AcDbBlockTableRecord
2
*PAPER_SPACE
0
ENDTAB
0
ENDSEC
0
SECTION
2
BLOCKS
0
BLOCK
5
20
100
AcDbEntity
100
AcDbBlockBegin
2
*MODEL_SPACE
0
ENDBLK
5
21
100
AcDbEntity
100
AcDbBlockEnd
0
BLOCK
5
1C
100
AcDbEntity
100
AcDbBlockBegin
2
*PAPER_SPACE
0
ENDBLK
5
1D
100
AcDbEntity
100
AcDbBlockEnd
0
ENDSEC
0
SECTION
2
ENTITIES
0
LWPOLYLINE
5
100
100
AcDbEntity
8
0
100
AcDbPolyline
90
63
70
1
43
0.0
10
-0.19649999999999987
20
16.262
10
0.0027400000000002422
20
16.270700000000001
10
0.20045999999999953
20
16.296700000000001
42
0.96856200000000103
10
-0.45049999999999268
20
20.834000000000003
10
-0.51691600000000137
20
20.836899999999993
42
-0.36396899999999982
10
-1.2096
20
21.529600000000002
10
-1.2124999999999999
20
21.596000000000004
10
-1.2124999999999984
20
64.77600000000001
42
-0.3888790000000012
10
-0.51691199999999993
20
65.535100000000014
10
-0.4504999999999999
20
65.538000000000011
10
-0.19649999999999987
20
65.538000000000011
10
0.0027400000000002422
20
65.546700000000001
10
0.20045999999999958
20
65.572700000000012
42
0.96856199999999926
10
-0.45049999999999268
20
70.110000000000014
10
-0.51691600000000104
20
70.112899999999996
42
-0.3639690000000016
10
-1.2096
20
70.805600000000013
10
-1.2124999999999999
20
70.872000000000014
10
-1.2125000000000064
20
82.810000000000031
42
-0.38887899999999886
10
4.5840600000000009
20
89.135799999999989
10
5.1374999999999993
20
89.159999999999997
10
68.637499999999989
20
89.159999999999997
42
0.38887899999999931
10
69.90270000000001
20
90.319299999999998
10
69.907500000000013
20
90.429999999999993
10
69.907500000000041
20
90.954000000000008
42
-0.38887900000000097
10
71.066800000000001
20
92.219200000000001
10
71.177500000000009
20
92.224000000000004
10
81.591499999999996
20
92.22399999999999
42
-0.38887900000000336
10
82.856699999999989
20
91.064699999999988
10
82.861500000000007
20
90.954000000000008
10
82.861500000000007
20
90.429999999999993
42
0.38887899999999559
10
84.020799999999994
20
89.1648
10
84.131500000000003
20
89.159999999999997
10
89.465500000000006
20
89.160000000000039
42
-0.38887900000000086
10
95.791300000000007
20
83.363399999999999
10
95.815500000000014
20
82.809999999999988
10
95.815500000000014
20
70.872000000000014
42
-0.38887900000000292
10
95.119900000000001
20
70.11290000000001
10
95.053500000000014
20
70.110000000000014
10
94.799500000000009
20
70.110000000000014
10
94.600300000000004
20
70.101300000000009
10
94.402500000000003
20
70.075300000000013
42
0.96856199999999759
10
95.053500000000014
20
65.538000000000011
10
95.119900000000001
20
65.535100000000014
42
-0.36397000000000107
10
95.812600000000003
20
64.842400000000012
10
95.815500000000014
20
64.77600000000001
10
95.815500000000014
20
21.595999999999997
42
-0.38887900000000125
10
95.119900000000001
20
20.8369
10
95.053500000000014
20
20.833999999999996
10
94.799500000000009
20
20.833999999999996
10
94.600300000000004
20
20.825300000000002
10
94.402500000000003
20
20.799300000000002
42
0.96856199999999759
10
95.053500000000014
20
16.262
10
95.119900000000001
20
16.259100000000007
42
-0.36396999999999841
10
95.812600000000003
20
15.5664
10
95.815500000000014
20
15.499999999999998
10
95.815500000000043
20
3.5619999999999923
42
-0.3888790000000002
10
90.018900000000002
20
-2.7638370000000014
10
89.465500000000006
20
-2.7880000000000011
10
5.2644999999999929
20
-2.78800000000001
42
-0.41421400000000014
10
-1.2124999999999999
20
3.5619999999999985
10
-1.2125000000000019
20
15.499999999999998
42
-0.38887900000000014
10
-0.51691199999999993
20
16.2591
10
-0.4504999999999999
20
16.262
0
LINE
5
101
100
AcDbEntity
8
0
100
AcDbLine
10
5.2009952560725843
20
3.6254951611940278
30
0
11
-2.1175599292081824
21
-3.6930600240867406
31
0
0
LWPOLYLINE
5
102
100
AcDbEntity
8
0
100
AcDbPolyline
90
8
70
1
43
0.0
10
5.1374764298305928
20
-10.787982029489367
42
-0.41421356237309537
10
-9.2125235701694113
20
3.5620179705106292
10
-9.2125235701694113
20
82.809985355638986
42
-0.41421356237309553
10
5.1374764298305919
20
97.159985355638995
10
89.465483380981084
20
97.159985355638995
42
-0.41421356237309398
10
103.81548338098106
20
82.809985355638986
10
103.81548338098106
20
3.5620179705106478
42
-0.41421356237309442
10
89.465483380981055
20
-10.787982029489363
0
LINE
5
103
100
AcDbEntity
8
0
100
AcDbLine
10
12.301500000000001
20
66.300739806675836
30
0
11
82.301500000000004
21
84.30073980667585
31
0
0
LINE
5
104
100
AcDbEntity
8
0
100
AcDbLine
10
82.301500000000004
20
66.300739806675836
30
0
11
12.301500000000001
21
84.30073980667585
31
0
0
CIRCLE
5
105
100
AcDbEntity
8
0
100
AcDbCircle
10
-2.1810787554501787
20
90.128540540919758
30
0
40
2.0000000000000053
210
0
220
0
230
1
0
LINE
5
106
100
AcDbEntity
8
0
100
AcDbLine
10
-9.212523570169413
20
97.159985355638995
30
0
11
5.1374764298305875
21
97.159985355638995
31
0
0
LINE
5
107
100
AcDbEntity
8
0
100
AcDbLine
10
5.1374764298305875
20
82.809985355638986
30
0
11
15.48747642983059
21
82.809985355638986
31
0
0
LINE
5
108
100
AcDbEntity
8
0
100
AcDbLine
10
-1.2125000000000044
20
75.300739806675836
30
0
11
31.087499999999999
21
75.300739806675836
31
0
0
LINE
5
109
100
AcDbEntity
8
0
100
AcDbLine
10
-9.212523570169413
20
82.809985355638986
30
0
11
-9.212523570169413
21
97.159985355638995
31
0
0
LINE
5
110
100
AcDbEntity
8
0
100
AcDbLine
10
68.637499999999989
20
89.159999999999997
30
0
11
5.1374999999999993
21
89.159999999999997
31
0
0
LINE
5
111
100
AcDbEntity
8
0
100
AcDbLine
10
5.2009952560725843
20
3.6254951611940278
30
0
11
15.550995256072586
21
3.6254951611940278
31
0
0
LINE
5
112
100
AcDbEntity
8
0
100
AcDbLine
10
-2.1175599292081837
20
-3.6930600240867415
30
0
11
1.8824400707918165
21
-3.6930600240867415
31
0
0
LINE
5
113
100
AcDbEntity
8
0
100
AcDbLine
10
31.087499999999999
20
75.300739806675836
30
0
11
47.301500000000004
21
75.300739806675836
31
0
0
CIRCLE
5
114
100
AcDbEntity
8
0
100
AcDbCircle
10
-2.1175599292081837
20
-3.6930600240867415
30
0
40
1.0499999999999987
210
0
220
0
230
1
0
CIRCLE
5
115
100
AcDbEntity
8
0
100
AcDbCircle
10
31.087499999999999
20
75.300739806675836
30
0
40
2.0499999999999998
210
0
220
0
230
1
0
LINE
5
116
100
AcDbEntity
8
0
100
AcDbLine
10
-2.1175599292081837
20
-3.6930600240867415
30
0
11
-4.945987053954374
21
-6.5214871488329322
31
0
0
LINE
5
117
100
AcDbEntity
8
0
100
AcDbLine
10
5.1374764298305875
20
82.809985355638986
30
0
11
-9.212523570169413
21
82.809985355638986
31
0
0
CIRCLE
5
118
100
AcDbEntity
8
0
100
AcDbCircle
10
-2.1810787554501787
20
90.128540540919758
30
0
40
1.0499999999999987
210
0
220
0
230
1
0
LINE
5
119
100
AcDbEntity
8
0
100
AcDbLine
10
5.1374764298305875
20
82.809985355638986
30
0
11
-2.1810787554501787
21
90.128540540919758
31
0
0
LINE
5
120
100
AcDbEntity
8
0
100
AcDbLine
10
5.1374764298305875
20
82.809985355638986
30
0
11
5.1374764298305875
21
97.159985355638995
31
0
0
LINE
5
121
100
AcDbEntity
8
0
100
AcDbLine
10
-1.2125000000000088
20
82.810000000000031
30
0
11
-1.2124999999999999
21
70.872000000000014
31
0
0
LINE
5
122
100
AcDbEntity
8
0
100
AcDbLine
10
5.264499999999992
20
-2.7880000000000082
30
0
11
89.465500000000006
21
-2.7880000000000011
31
0
0
LINE
5
123
100
AcDbEntity
8
0
100
AcDbLine
10
-2.1810787554501787
20
90.128540540919758
30
0
11
-5.0095058801963646
21
92.956967665665942
31
0
0
LINE
5
124
100
AcDbEntity
8
0
100
AcDbLine
10
95.815500000000014
20
21.595999999999997
30
0
11
95.815500000000014
21
64.77600000000001
31
0
0
LINE
5
125
100
AcDbEntity
8
0
100
AcDbLine
10
69.907500000000013
20
89.159999999999997
30
0
11
69.898469504340554
21
89.159999999999997
31
0
0
LINE
5
126
100
AcDbEntity
8
0
100
AcDbLine
10
103.81548338098105
20
3.562017970510639
30
0
11
103.81548338098106
21
-10.787982029489363
31
0
0
LINE
5
127
100
AcDbEntity
8
0
100
AcDbLine
10
69.907500000000013
20
90.612907669312307
30
0
11
68.907500000000013
21
90.612907669312307
31
0
0
LINE
5
128
100
AcDbEntity
8
0
100
AcDbLine
10
89.465500000000006
20
89.159999999999997
30
0
11
84.131500000000003
21
89.159999999999997
31
0
0
LINE
5
129
100
AcDbEntity
8
0
100
AcDbLine
10
89.465483380981041
20
3.5620179705106212
30
0
11
90.239166649279653
21
3.5620179705106212
31
0
0
LINE
5
130
100
AcDbEntity
8
0
100
AcDbLine
10
89.465483380981041
20
3.5620179705106212
30
0
11
103.81548338098105
21
3.562017970510639
31
0
0
LINE
5
131
100
AcDbEntity
8
0
100
AcDbLine
10
89.465483380981041
20
3.5620179705106212
30
0
11
99.81548338098105
21
3.5620179705106212
31
0
0
LINE
5
132
100
AcDbEntity
8
0
100
AcDbLine
10
68.637499999999989
20
89.159999999999997
30
0
11
69.907500000000013
21
89.159999999999997
31
0
0
LINE
5
133
100
AcDbEntity
8
0
100
AcDbLine
10
89.465483380981041
20
3.5620179705106212
30
0
11
89.465483380981055
21
-10.787982029489376
31
0
0
LINE
5
134
100
AcDbEntity
8
0
100
AcDbLine
10
95.815500000000014
20
75.300739806675836
30
0
11
63.515500000000024
21
75.300739806675836
31
0
0
LINE
5
135
100
AcDbEntity
8
0
100
AcDbLine
10
81.591499999999996
20
92.224000000000004
30
0
11
71.177500000000009
21
92.224000000000004
31
0
0
CIRCLE
5
136
100
AcDbEntity
8
0
100
AcDbCircle
10
96.784038566261842
20
-3.7565372147701419
30
0
40
1.0499999999999987
210
0
220
0
230
1
0
LINE
5
137
100
AcDbEntity
8
0
100
AcDbLine
10
89.465483380981055
20
-10.787982029489376
30
0
11
103.81548338098106
21
-10.787982029489363
31
0
0
LINE
5
138
100
AcDbEntity
8
0
100
AcDbLine
10
96.784038566261842
20
-3.7565372147701419
30
0
11
100.78403856626184
21
-3.7565372147701419
31
0
0
CIRCLE
5
139
100
AcDbEntity
8
0
100
AcDbCircle
10
63.515500000000024
20
75.300739806675836
30
0
40
2.0499999999999998
210
0
220
0
230
1
0
LINE
5
140
100
AcDbEntity
8
0
100
AcDbLine
10
89.465483380981041
20
3.5620179705106212
30
0
11
96.784038566261813
21
-3.7565372147701401
31
0
0
LINE
5
141
100
AcDbEntity
8
0
100
AcDbLine
10
96.784038566261842
20
-3.7565372147701419
30
0
11
99.612465691008055
21
-6.5849643395163326
31
0
0
LINE
5
142
100
AcDbEntity
8
0
100
AcDbLine
10
69.907500000000013
20
90.954000000000008
30
0
11
69.907500000000013
21
90.429999999999993
31
0
0
LINE
5
143
100
AcDbEntity
8
0
100
AcDbLine
10
69.907500000000013
20
90.612907669312307
30
0
11
69.907500000000013
21
89.159999999999997
31
0
0
LINE
5
144
100
AcDbEntity
8
0
100
AcDbLine
10
96.784018714770156
20
90.1285587554502
30
0
11
100.78401871477018
21
90.1285587554502
31
0
0
LINE
5
145
100
AcDbEntity
8
0
100
AcDbLine
10
76.158247681671043
20
92.224000000000004
30
0
11
76.158247681671043
21
93.224000000000004
31
0
0
LINE
5
146
100
AcDbEntity
8
0
100
AcDbLine
10
89.465463529489398
20
82.810003570169428
30
0
11
96.784018714770156
21
90.1285587554502
31
0
0
LINE
5
147
100
AcDbEntity
8
0
100
AcDbLine
10
87.376211368991022
20
89.159999999999997
30
0
11
87.376211368991022
21
90.159999999999997
31
0
0
LINE
5
148
100
AcDbEntity
8
0
100
AcDbLine
10
89.465463529489398
20
82.810003570169428
30
0
11
99.815463529489392
21
82.810003570169428
31
0
0
LINE
5
149
100
AcDbEntity
8
0
100
AcDbLine
10
82.861500000000007
20
90.556767256126165
30
0
11
83.861500000000007
21
90.556767256126165
31
0
0
LINE
5
150
100
AcDbEntity
8
0
100
AcDbLine
10
82.861500000000007
20
90.429999999999993
30
0
11
82.861500000000007
21
90.954000000000008
31
0
0
LINE
5
151
100
AcDbEntity
8
0
100
AcDbLine
10
96.784018714770156
20
90.1285587554502
30
0
11
99.612445839516369
21
92.956985880196399
31
0
0
CIRCLE
5
152
100
AcDbEntity
8
0
100
AcDbCircle
10
96.784018714770156
20
90.1285587554502
30
0
40
1.0499999999999987
210
0
220
0
230
1
0
LWPOLYLINE
5
153
100
AcDbEntity
8
0
100
AcDbPolyline
90
8
70
1
43
0.0
10
77.301500000000004
20
84.30073980667585
10
17.249499999999991
20
84.30073980667585
42
0.41421356237309387
10
12.249499999999994
20
79.30073980667585
10
12.249499999999989
20
63.30073980667585
42
0.41421356237309531
10
17.249499999999991
20
58.30073980667585
10
76.301500000000004
20
58.30073980667585
42
0.41421356237309681
10
82.301500000000004
20
64.30073980667585
10
82.301500000000004
20
79.30073980667585
42
0.41421356237309193
0
ENDSEC
0
SECTION
2
OBJECTS
0
DICTIONARY
5
C
100
AcDbDictionary
3
ACAD_GROUP
350
D
3
ACAD_MLINESTYLE
350
17
0
DICTIONARY
5
D
100
AcDbDictionary
0
DICTIONARY
5
1A
330
C
100
AcDbDictionary
0
DICTIONARY
5
17
100
AcDbDictionary
0
ENDSEC
0
EOF
